<svg xmlns="http://www.w3.org/2000/svg" width="24" height="24" viewBox="0 0 24 24" fill="none" stroke="#ffff00" stroke-width="2" stroke-linecap="round" stroke-linejoin="round">
  <title>Squish</title>
  <rect width="24" height="24" rx="4" fill="#000" stroke="none" />
  <g transform="translate(2 2) scale(0.833333)">
  <path d="M3 17a1 1 0 0 1 1 -1h3a1 1 0 0 1 1 1v3a1 1 0 0 1 -1 1h-3a1 1 0 0 1 -1 -1l0 -3" />
  <path d="M4 12v-6a2 2 0 0 1 2 -2h12a2 2 0 0 1 2 2v12a2 2 0 0 1 -2 2h-6" />
  <path d="M15 13h-4v-4" />
  <path d="M11 13l5 -5" />
  </g>
</svg>
